<?xml version="1.0" standalone="no"?>
<!DOCTYPE svg PUBLIC "-//W3C//DTD SVG 20010904//EN"
 "http://www.w3.org/TR/2001/REC-SVG-20010904/DTD/svg10.dtd">
<svg version="1.0" xmlns="http://www.w3.org/2000/svg"
 width="512.000000pt" height="512.000000pt" viewBox="0 0 512.000000 512.000000"
 preserveAspectRatio="xMidYMid meet">

<g transform="translate(0.000000,512.000000) scale(0.100000,-0.100000)"
fill="#000000" stroke="none">
<path d="M1140 4551 c-69 -21 -121 -65 -156 -131 -18 -34 -19 -101 -19 -1980
l0 -1945 22 -40 c25 -47 64 -85 113 -111 34 -18 89 -19 1460 -19 1371 0 1426
1 1460 19 49 26 88 64 113 111 l22 40 0 1945 c0 1879 -1 1946 -19 1980 -26 49
-64 88 -111 113 -39 22 -50 22 -512 25 l-473 3 0 -41 0 -40 83 0 c45 0 92 -3
105 -6 41 -11 52 -52 52 -189 l0 -125 295 0 296 0 24 -25 25 -24 0 -1751 0
-1751 -25 -24 -24 -25 -1311 0 -1311 0 -24 25 -25 24 0 1751 0 1751 25 24 24
25 295 0 294 0 4 140 c4 177 1 174 138 178 l100 4 0 39 0 39 -457 -1 c-252 0
-469 -4 -483 -8z"/>
<path d="M2075 4351 c-45 -20 -70 -60 -70 -112 0 -42 5 -53 33 -81 28 -28 39
-33 82 -33 43 0 54 5 82 33 28 28 33 39 33 82 0 42 -5 54 -31 81 -33 33 -92
46 -129 30z"/>
<path d="M2955 4351 c-45 -20 -70 -60 -70 -112 0 -42 5 -53 33 -81 28 -28 39
-33 82 -33 43 0 54 5 82 33 28 28 33 39 33 82 0 42 -5 54 -31 81 -33 33 -92
46 -129 30z"/>
<path d="M2045 3508 c-11 -5 -79 -69 -152 -141 l-132 -131 -65 62 c-51 49 -71
62 -96 62 -42 0 -80 -39 -80 -82 0 -27 15 -47 103 -135 144 -144 126 -148 343
69 95 94 178 184 185 200 15 36 -2 81 -37 97 -31 14 -43 14 -69 -1z"/>
<path d="M2363 3508 c-51 -24 -52 -110 -2 -135 33 -17 676 -18 713 -2 55 26
55 112 0 138 -33 15 -680 14 -711 -1z"/>
<path d="M2363 3108 c-51 -24 -52 -110 -2 -135 33 -17 1316 -19 1353 -2 13 7
30 25 37 40 15 37 -2 82 -37 98 -34 15 -1319 14 -1351 -1z"/>
<path d="M2045 2548 c-11 -5 -79 -69 -152 -141 l-132 -131 -65 62 c-51 49 -71
62 -96 62 -42 0 -80 -39 -80 -82 0 -27 15 -47 103 -135 144 -144 126 -148 343
69 95 94 178 184 185 200 15 36 -2 81 -37 97 -31 14 -43 14 -69 -1z"/>
<path d="M2363 2548 c-51 -24 -52 -110 -2 -135 33 -17 676 -18 713 -2 55 26
55 112 0 138 -33 15 -680 14 -711 -1z"/>
<path d="M2363 2148 c-51 -24 -52 -110 -2 -135 33 -17 1316 -19 1353 -2 35 16
52 61 37 98 -7 15 -24 33 -37 40 -34 15 -1319 14 -1351 -1z"/>
<path d="M2045 1588 c-11 -5 -79 -69 -152 -141 l-132 -131 -65 62 c-51 49 -71
62 -96 62 -42 0 -80 -39 -80 -82 0 -27 15 -47 103 -135 144 -144 126 -148 343
69 95 94 178 184 185 200 15 36 -2 81 -37 97 -31 14 -43 14 -69 -1z"/>
<path d="M2363 1588 c-51 -24 -52 -110 -2 -135 33 -17 676 -18 713 -2 55 26
55 112 0 138 -33 15 -680 14 -711 -1z"/>
<path d="M2363 1188 c-51 -24 -52 -110 -2 -135 33 -17 1316 -19 1353 -2 35 16
52 61 37 98 -7 15 -24 33 -37 40 -34 15 -1319 14 -1351 -1z"/>
</g>
</svg>
